<svg width="102" height="73" viewBox="0 0 102 73" fill="none" xmlns="http://www.w3.org/2000/svg">
<path d="M36.6505 18.0478C34.8585 14.5278 32.0425 12.7678 28.2025 12.7678C24.3625 12.7678 21.5145 14.5278 19.6585 18.0478C17.8665 21.5678 16.9705 27.6798 16.9705 36.3838C16.9705 45.0878 17.8665 51.1998 19.6585 54.7198C21.5145 58.2398 24.3625 59.9998 28.2025 59.9998C32.0425 59.9998 34.8585 58.2398 36.6505 54.7198C38.5065 51.1998 39.4345 45.0878 39.4345 36.3838C39.4345 27.6798 38.5065 21.5678 36.6505 18.0478ZM49.1305 63.9358C44.5865 69.5678 37.6105 72.3838 28.2025 72.3838C18.7945 72.3838 11.7865 69.5678 7.1785 63.9358C2.6345 58.3038 0.362499 49.1198 0.362499 36.3838C0.362499 23.6478 2.6345 14.4638 7.1785 8.83183C11.7865 3.19983 18.7945 0.383827 28.2025 0.383827C37.6105 0.383827 44.5865 3.19983 49.1305 8.83183C53.7385 14.4638 56.0425 23.6478 56.0425 36.3838C56.0425 49.1198 53.7385 58.3038 49.1305 63.9358ZM70.192 29.4718C69.296 30.1758 68.336 30.2718 67.312 29.7598C66.352 29.2478 65.872 28.4158 65.872 27.2638V20.2558C65.872 16.6078 67.344 13.7278 70.288 11.6158L79.984 4.51183C82.864 2.39983 86.16 1.34383 89.872 1.34383H95.92C97.392 1.34383 98.672 1.88783 99.76 2.97582C100.848 4.06382 101.392 5.34382 101.392 6.81582V65.9518C101.392 67.4238 100.848 68.7038 99.76 69.7918C98.672 70.8798 97.392 71.4238 95.92 71.4238H89.872C88.4 71.4238 87.12 70.8798 86.032 69.7918C84.944 68.7038 84.4 67.4238 84.4 65.9518V19.2958H84.304H84.208L70.192 29.4718Z" fill="#B9E7E3"/>
</svg>
