<svg width="113" height="73" viewBox="0 0 113 73" fill="none" xmlns="http://www.w3.org/2000/svg">
<path d="M37.1505 18.0478C35.3585 14.5278 32.5425 12.7678 28.7025 12.7678C24.8625 12.7678 22.0145 14.5278 20.1585 18.0478C18.3665 21.5678 17.4705 27.6798 17.4705 36.3838C17.4705 45.0878 18.3665 51.1998 20.1585 54.7198C22.0145 58.2398 24.8625 59.9998 28.7025 59.9998C32.5425 59.9998 35.3585 58.2398 37.1505 54.7198C39.0065 51.1998 39.9345 45.0878 39.9345 36.3838C39.9345 27.6798 39.0065 21.5678 37.1505 18.0478ZM49.6305 63.9358C45.0865 69.5678 38.1105 72.3838 28.7025 72.3838C19.2945 72.3838 12.2865 69.5678 7.6785 63.9358C3.1345 58.3038 0.862499 49.1198 0.862499 36.3838C0.862499 23.6478 3.1345 14.4638 7.6785 8.83183C12.2865 3.19983 19.2945 0.383827 28.7025 0.383827C38.1105 0.383827 45.0865 3.19983 49.6305 8.83183C54.2385 14.4638 56.5425 23.6478 56.5425 36.3838C56.5425 49.1198 54.2385 58.3038 49.6305 63.9358ZM70.02 71.4238C68.548 71.4238 67.268 70.8798 66.18 69.7918C65.092 68.7038 64.548 67.4238 64.548 65.9518V63.7438C64.548 60.1598 65.988 57.2478 68.868 55.0078C79.62 46.5598 86.724 40.1278 90.18 35.7118C93.7 31.2958 95.46 26.9758 95.46 22.7518C95.46 16.8638 92.196 13.9198 85.668 13.9198C81.7 13.9198 76.836 15.0078 71.076 17.1838C69.86 17.6318 68.708 17.5038 67.62 16.7998C66.532 16.0958 65.988 15.1038 65.988 13.8238V9.79183C65.988 8.12782 66.468 6.65582 67.428 5.37583C68.388 4.03182 69.668 3.13582 71.268 2.68783C77.092 1.15183 82.692 0.383827 88.068 0.383827C95.812 0.383827 101.764 2.23983 105.924 5.95182C110.148 9.59983 112.26 14.6878 112.26 21.2158C112.26 26.8478 110.468 32.2238 106.884 37.3438C103.364 42.3998 96.452 49.2798 86.148 57.9838C86.084 58.0478 86.052 58.1118 86.052 58.1758C86.052 58.2398 86.084 58.2718 86.148 58.2718H107.172C108.644 58.2718 109.892 58.8158 110.916 59.9038C112.004 60.9918 112.548 62.2718 112.548 63.7438V65.9518C112.548 67.4238 112.004 68.7038 110.916 69.7918C109.892 70.8798 108.644 71.4238 107.172 71.4238H70.02Z" fill="#B9E7E3"/>
</svg>
