<svg width="112" height="73" viewBox="0 0 112 73" fill="none" xmlns="http://www.w3.org/2000/svg">
<path d="M37.1505 18.0478C35.3585 14.5278 32.5425 12.7678 28.7025 12.7678C24.8625 12.7678 22.0145 14.5278 20.1585 18.0478C18.3665 21.5678 17.4705 27.6798 17.4705 36.3838C17.4705 45.0878 18.3665 51.1998 20.1585 54.7198C22.0145 58.2398 24.8625 59.9998 28.7025 59.9998C32.5425 59.9998 35.3585 58.2398 37.1505 54.7198C39.0065 51.1998 39.9345 45.0878 39.9345 36.3838C39.9345 27.6798 39.0065 21.5678 37.1505 18.0478ZM49.6305 63.9358C45.0865 69.5678 38.1105 72.3838 28.7025 72.3838C19.2945 72.3838 12.2865 69.5678 7.6785 63.9358C3.1345 58.3038 0.862499 49.1198 0.862499 36.3838C0.862499 23.6478 3.1345 14.4638 7.6785 8.83183C12.2865 3.19983 19.2945 0.383827 28.7025 0.383827C38.1105 0.383827 45.0865 3.19983 49.6305 8.83183C54.2385 14.4638 56.5425 23.6478 56.5425 36.3838C56.5425 49.1198 54.2385 58.3038 49.6305 63.9358ZM69.732 14.4958C68.26 14.4958 66.98 13.9518 65.892 12.8638C64.804 11.7758 64.26 10.4958 64.26 9.02382V6.81582C64.26 5.34382 64.804 4.06382 65.892 2.97582C66.98 1.88783 68.26 1.34383 69.732 1.34383H105.54C107.012 1.34383 108.292 1.88783 109.38 2.97582C110.468 4.06382 111.012 5.34382 111.012 6.81582V9.02382C111.012 12.6718 109.604 15.6478 106.788 17.9518L92.292 29.9518V30.0478C92.292 30.1118 92.324 30.1438 92.388 30.1438H93.54C99.108 30.1438 103.556 31.8718 106.884 35.3278C110.276 38.7838 111.972 43.4558 111.972 49.3438C111.972 56.7678 109.7 62.4638 105.156 66.4318C100.612 70.3998 94.084 72.3838 85.572 72.3838C80.452 72.3838 75.268 71.7758 70.02 70.5598C68.484 70.1758 67.204 69.3438 66.18 68.0638C65.22 66.7198 64.74 65.2158 64.74 63.5518V60.2878C64.74 59.0078 65.252 58.0158 66.276 57.3118C67.364 56.5438 68.548 56.3518 69.828 56.7358C75.332 58.5278 80.132 59.4238 84.228 59.4238C87.94 59.4238 90.82 58.5598 92.868 56.8318C94.916 55.1038 95.94 52.7038 95.94 49.6318C95.94 46.4958 94.756 44.2878 92.388 43.0078C90.02 41.7278 85.604 41.0558 79.14 40.9918C77.668 40.9918 76.388 40.4798 75.3 39.4558C74.212 38.3678 73.668 37.0878 73.668 35.6158V35.4238C73.668 31.8398 75.044 28.8638 77.796 26.4958L91.428 14.6878V14.5918C91.428 14.5278 91.396 14.4958 91.332 14.4958H69.732Z" fill="#B9E7E3"/>
</svg>
