<svg width="100" height="101" viewBox="0 0 100 101" fill="none" xmlns="http://www.w3.org/2000/svg">
<g clip-path="url(#clip0_2423_537)">
<path d="M63.775 34.4668C60.7209 33.9586 52.849 33.9922 47.6254 35.8918C42.4004 37.7912 32.8994 43.7285 30.0496 44.6803C27.1998 45.6293 26.9617 49.4307 33.3739 50.142C39.7871 50.8557 45.4867 46.8162 46.9115 46.1051C48.3365 45.3914 62.1119 47.5301 62.1119 47.5301L66.4459 48.598L76.4383 62.1047C78.1916 60.5816 81.6594 57.349 82.5375 54.8924C82.858 53.9977 83.334 53.1752 83.8563 52.4447L69.6981 32.918C67.8918 33.9418 65.7119 34.79 63.775 34.4668Z" fill="#2C756E"/>
<path d="M63.7752 50.5586L61.6752 50.3467C58.9199 49.9199 51.1283 48.8105 48.2035 48.8105C48.0742 48.8105 47.9721 48.8119 47.8957 48.8156C47.7781 48.8828 47.6422 48.9605 47.509 49.0381C45.4338 50.2471 40.5707 53.0773 34.9074 53.0773C34.2867 53.0773 33.6648 53.0424 33.0598 52.9752C32.1418 52.873 31.3348 52.7152 30.6211 52.5162C31.2973 52.8123 31.9205 53.2365 32.4533 53.7809C33.2912 54.6369 33.8096 55.6867 34.0152 56.7846C34.5027 56.6539 35.0082 56.5814 35.5254 56.5814C37.1105 56.5814 38.5938 57.2047 39.7004 58.3373C40.7918 59.452 41.3826 60.926 41.3658 62.4853C41.3658 62.5008 41.3633 62.5164 41.3633 62.5318C42.942 62.5369 44.4187 63.1603 45.5229 64.2877C46.6141 65.4023 47.2051 66.8762 47.1883 68.4357C47.183 68.9736 47.1004 69.4984 46.9543 70.0029C48.074 70.2369 49.0994 70.7941 49.9191 71.632C52.1715 73.935 52.1314 77.6393 49.8299 79.8918L48.6779 81.0193C48.683 81.0193 48.6883 81.0193 48.6934 81.0193C50.6303 80.8797 52.2607 79.685 52.7172 77.885C53.5059 78.5068 54.4988 78.8805 55.5813 78.8805C58.1389 78.8805 60.2127 76.8078 60.2127 74.249C60.2127 73.9801 60.1855 73.7189 60.1402 73.4627C60.9549 74.1727 62.0164 74.6057 63.1814 74.6057C65.7391 74.6057 67.8131 72.5316 67.8131 69.9742C68.3613 70.2031 68.9625 70.3311 69.5936 70.3311C72.1523 70.3311 74.225 68.257 74.225 65.6996C74.225 63.7574 73.276 62.493 71.0184 59.8811L63.7752 50.5586Z" fill="#2C756E"/>
<path d="M30.4165 55.7741C29.2606 54.5936 27.3677 54.5729 26.1872 55.7276L21.9138 59.9104C20.7333 61.0651 20.7126 62.9581 21.8673 64.1386C23.0231 65.319 24.9161 65.3397 26.0966 64.1837L30.3712 60.002C31.5503 58.8475 31.571 56.9546 30.4165 55.7741Z" fill="#2C756E"/>
<path d="M37.6629 60.3298C36.5082 59.148 34.6153 59.1273 33.4348 60.2832L27.7366 65.8586C26.5547 67.0144 26.5354 68.9074 27.6899 70.0867C28.8446 71.2685 30.7389 71.2892 31.9194 70.1334L37.6176 64.5578C38.7981 63.4033 38.8188 61.5103 37.6629 60.3298Z" fill="#2C756E"/>
<path d="M43.4847 66.2805C42.33 65.1 40.437 65.0779 39.2565 66.234L33.5583 71.8108C32.3778 72.9653 32.3571 74.8582 33.5118 76.0401C34.6665 77.2194 36.5595 77.2401 37.7413 76.084L43.4395 70.5086C44.62 69.3526 44.6407 67.4596 43.4847 66.2805Z" fill="#2C756E"/>
<path d="M47.8821 73.6242C46.7274 72.4437 44.8345 72.4218 43.654 73.5777L40.3298 76.831C39.1493 77.9855 39.1286 79.8785 40.2833 81.0591C41.4391 82.2396 43.3321 82.2591 44.5126 81.1056L47.8368 77.8525C49.0175 76.6978 49.0368 74.8048 47.8821 73.6242Z" fill="#2C756E"/>
<path d="M99.7277 46.821L80.6277 20.48C80.166 19.8413 79.2752 19.7005 78.6377 20.162L70.1777 26.2972C69.5402 26.7587 69.398 27.6497 69.8609 28.287L88.9609 54.6294C89.4225 55.2669 90.3135 55.4091 90.9508 54.9462L99.4123 48.8122C100.048 48.3491 100.191 47.4583 99.7277 46.821ZM93.2293 49.1872C92.1678 49.9577 90.682 49.7198 89.9115 48.6583C89.1422 47.5968 89.3787 46.1124 90.4416 45.3419C91.5031 44.5712 92.9875 44.8091 93.7582 45.8695C94.5273 46.9321 94.2908 48.4179 93.2293 49.1872Z" fill="#2C756E"/>
<path d="M28.2779 52.0232C28.7279 52.0232 29.1676 52.0803 29.5941 52.1771C26.0035 50.8002 25.4088 48.2814 25.3156 47.3932C25.0621 45.001 26.6021 42.8225 29.148 41.9742C30.1721 41.6328 32.8562 40.1691 35.4527 38.7547C38.2379 37.2354 41.2945 35.5688 43.9529 34.3428C40.5834 34.0701 37.4258 34.1852 35.7398 34.4656C33.9244 34.7682 31.8971 34.043 30.1631 33.1094L15.8936 52.7875C16.3215 53.4301 16.7055 54.1336 16.9756 54.8912C17.3752 56.0084 18.3113 57.2857 19.3779 58.4908C19.5447 58.2762 19.7219 58.0666 19.9211 57.8715L24.1943 53.6887C25.2924 52.6154 26.7432 52.0232 28.2779 52.0232Z" fill="#2C756E"/>
<path d="M29.8232 26.296L21.3617 20.162C20.7256 19.7005 19.8348 19.8413 19.3719 20.48L0.271684 46.8212C-0.191206 47.4585 -0.0476515 48.3493 0.588481 48.8124L9.04864 54.9464C9.68614 55.4093 10.577 55.2671 11.0387 54.6282L30.1389 28.2872C30.6016 27.6499 30.4594 26.7589 29.8232 26.296ZM24.169 29.239C23.3996 30.2991 21.9139 30.537 20.8523 29.7665C19.7895 28.997 19.5527 27.5114 20.3234 26.4499C21.0928 25.3884 22.5785 25.1505 23.64 25.921C24.7029 26.6917 24.9383 28.1761 24.169 29.239Z" fill="#2C756E"/>
</g>
<defs>
<clipPath id="clip0_2423_537">
<rect width="100" height="100" fill="white" transform="translate(0 0.923828)"/>
</clipPath>
</defs>
</svg>
