<svg width="100" height="101" viewBox="0 0 100 101" fill="none" xmlns="http://www.w3.org/2000/svg">
<g clip-path="url(#clip0_2423_576)">
<path d="M50.5844 82.4076C62.4551 82.4076 70.6165 80.8668 70.7403 79.3834C71.2565 73.1939 63.2223 69.9604 59.984 68.7498C59.6461 68.6242 59.2821 68.449 58.9082 68.2461L52.6817 76.8553L52.2383 71.2145H48.9288L48.487 76.8539L42.2584 68.2461C41.8756 68.46 41.5038 68.6352 41.1827 68.7498C37.9213 69.8984 29.9104 73.1986 30.425 79.3834C30.5524 80.8668 38.7124 82.4076 50.5844 82.4076Z" fill="#2C756E"/>
<path d="M43.2304 55.9801C43.6845 58.5486 44.4441 60.8148 45.4484 61.9308C45.4484 63.2687 45.4484 64.2451 45.4484 65.0264C45.4484 65.1055 45.4345 65.1877 45.4113 65.2728L48.9285 66.9654V69.4502H52.2381V66.967L55.7537 65.2742C55.7306 65.1891 55.7166 65.1051 55.7166 65.0262C55.7166 64.2449 55.7166 63.2684 55.7166 61.9307C56.7211 60.8146 57.4836 58.5484 57.9363 55.9799C58.9933 55.6033 59.598 54.9986 60.3513 52.3541C61.1541 49.5408 59.1453 49.6338 59.1453 49.6338C60.7713 44.2502 58.6291 39.1922 55.0437 39.5643C52.5715 35.235 44.2861 40.5518 41.6896 40.1812C41.6896 41.6633 42.3082 42.7793 42.3082 42.7793C41.4045 44.4922 41.7533 47.907 42.0074 49.634C41.8586 49.634 40.0404 49.6525 40.8138 52.3543C41.5687 54.9988 42.1717 55.6035 43.2304 55.9801Z" fill="#2C756E"/>
<path d="M79.0967 11.5352H64.2854V14.7098C64.2854 20.8357 59.3002 25.8209 53.1742 25.8209H46.825C40.6988 25.8209 35.7139 20.8357 35.7139 14.7098V11.5352H20.9025C15.933 11.5352 11.9043 15.5639 11.9043 20.5334V91.4258C11.9043 96.3953 15.933 100.424 20.9025 100.424H79.0965C84.066 100.424 88.0947 96.3953 88.0947 91.4258V20.5334C88.0949 15.5639 84.0662 11.5352 79.0967 11.5352ZM78.5711 90.9002H21.4281V29.7891H78.5711V90.9002Z" fill="#2C756E"/>
<path d="M46.8252 22.6461H53.1744C57.5504 22.6461 61.1109 19.0855 61.1109 14.7096V8.36035C61.1109 3.98437 57.5504 0.423828 53.1744 0.423828H46.8252C42.4492 0.423828 38.8887 3.98437 38.8887 8.36035V14.7096C38.8887 19.0854 42.4492 22.6461 46.8252 22.6461ZM45.2379 8.36035C45.2379 7.48301 45.9479 6.77305 46.8252 6.77305H53.1744C54.0518 6.77305 54.7617 7.48301 54.7617 8.36035V11.535C54.7617 12.4123 54.0518 13.1223 53.1744 13.1223H46.8252C45.9479 13.1223 45.2379 12.4123 45.2379 11.535V8.36035Z" fill="#2C756E"/>
</g>
<defs>
<clipPath id="clip0_2423_576">
<rect width="100" height="100" fill="white" transform="translate(0 0.423828)"/>
</clipPath>
</defs>
</svg>
