<svg width="100" height="101" viewBox="0 0 100 101" fill="none" xmlns="http://www.w3.org/2000/svg">
<g clip-path="url(#clip0_2423_562)">
<path d="M42.9338 77.4121H20.0361V81.6738H42.9338V77.4121Z" fill="#2C756E"/>
<path d="M51.3457 60.127H20.0361V64.3887H51.3457V60.127Z" fill="#2C756E"/>
<path d="M64.6391 42.8477H20.0361V47.1094H64.6391V42.8477Z" fill="#2C756E"/>
<path d="M64.6393 25.5664H43.6162V29.8281H64.6393V25.5664Z" fill="#2C756E"/>
<path d="M76.7121 91.3301C76.7121 93.523 74.9279 95.3105 72.7326 95.3105H11.9418C9.74629 95.3105 7.96211 93.5232 7.96211 91.3301V34.7984H32.2893C34.9793 34.7984 37.1674 32.6088 37.1674 29.918V5.5373H72.7324C74.9277 5.5373 76.7119 7.32148 76.7119 9.51465V38.2393L81.8262 33.126V9.51445C81.8262 4.50293 77.7463 0.423828 72.7324 0.423828H35.8463C33.1951 0.423828 30.6555 1.47441 28.783 3.34727L5.77461 26.3574C3.9 28.2307 2.84863 30.7727 2.84863 33.4215V91.3301C2.84863 96.3447 6.92871 100.424 11.9418 100.424H72.7326C77.7465 100.424 81.8264 96.3447 81.8264 91.3301V66.875L76.7121 71.9885V91.3301ZM32.6215 6.74121V27.1818C32.6215 29.3926 31.7602 30.2523 29.55 30.2523H9.10938L32.6215 6.74121Z" fill="#2C756E"/>
<path d="M96.4436 40.8037L91.0215 35.3816C90.0785 34.4379 88.5488 34.4379 87.6051 35.3816L84.0898 38.8969L92.9293 47.7353L96.4436 44.2203C97.3873 43.2764 97.3873 41.7475 96.4436 40.8037Z" fill="#2C756E"/>
<path d="M51.3473 71.6406L48.334 83.493L60.1857 80.4789L51.3473 71.6406Z" fill="#2C756E"/>
<path d="M53.1553 69.833L61.9945 78.6717L91.3229 49.3441L82.4836 40.5039L53.1553 69.833ZM85.8992 47.9381L60.3469 73.4904L58.3381 71.4799L83.8902 45.9275L85.8992 47.9381Z" fill="#2C756E"/>
</g>
<defs>
<clipPath id="clip0_2423_562">
<rect width="100" height="100" fill="white" transform="translate(0 0.423828)"/>
</clipPath>
</defs>
</svg>
