<svg width="100" height="101" viewBox="0 0 100 101" fill="none" xmlns="http://www.w3.org/2000/svg">
<g clip-path="url(#clip0_2423_533)">
<path d="M70.1813 95.9795C64.2544 95.9795 58.6845 93.6717 54.4954 89.4824C45.8454 80.8307 45.8454 66.7526 54.4936 58.101C55.4702 57.1254 56.5267 56.2615 57.6405 55.4961C57.6405 55.3293 57.6405 55.1625 57.6405 54.9975C59.8585 52.5326 60.6657 52.8395 62.5434 43.1621C66.3392 43.1621 66.0921 38.2309 67.8831 33.8567C69.3423 30.2945 68.12 28.8504 66.8909 28.2602C67.8966 15.2793 67.8966 6.33908 53.162 3.56564C47.8216 -1.0119 39.7628 0.542205 35.9436 1.30607C32.1282 2.06994 28.686 1.30607 28.686 1.30607L29.3415 7.45646C23.7542 14.1619 26.5483 23.1022 25.6485 28.3385C24.4763 28.9772 23.419 30.4496 24.8147 33.8567C26.605 38.2309 26.3589 43.1621 30.1546 43.1621C32.0315 52.8395 32.8386 52.5326 35.0583 54.9975C35.0583 57.9559 35.0583 61.1627 35.0583 62.8887C35.0583 67.8199 33.3823 67.9049 29.5634 70.0395C20.3563 75.1858 8.35849 78.1758 6.20888 94.2602C5.81552 97.202 22.7069 100.414 46.3489 100.424C60.6356 100.417 72.4493 99.2414 79.48 97.6639C78.5177 96.5817 77.5954 95.5561 76.9952 94.909C74.8005 95.6145 72.4892 95.9795 70.1813 95.9795Z" fill="#2C756E"/>
<path d="M92.5214 90.6465C92.5214 90.6465 87.2851 86.0655 86.0327 84.8147C84.1933 82.987 83.4579 82.1049 84.1065 80.619C86.9466 74.829 85.9644 67.6432 81.1499 62.8286C75.0946 56.7733 65.279 56.7733 59.2253 62.8286C53.171 68.8836 53.171 78.6979 59.2253 84.7547C64.0364 89.5674 71.2257 90.5497 77.0124 87.7114C78.4997 87.0627 79.3819 87.7981 81.2114 89.6375C82.4622 90.8899 87.0415 96.1262 87.0415 96.1262C89.4161 98.4993 91.2438 97.0383 92.3396 95.9444C93.4351 94.8471 94.896 93.0196 92.5214 90.6465ZM76.5354 80.1387C73.0282 83.6424 67.3468 83.6424 63.8413 80.1387C60.3343 76.6333 60.3343 70.95 63.8413 67.4446C67.3466 63.9409 73.0282 63.9409 76.5354 67.4446C80.0407 70.95 80.0407 76.6333 76.5354 80.1387Z" fill="#2C756E"/>
</g>
<defs>
<clipPath id="clip0_2423_533">
<rect width="100" height="100" fill="white" transform="translate(0 0.423828)"/>
</clipPath>
</defs>
</svg>
