<svg width="100" height="101" viewBox="0 0 100 101" fill="none" xmlns="http://www.w3.org/2000/svg">
<g clip-path="url(#clip0_2423_572)">
<path d="M12.0973 67.8441H87.9029C90.7961 67.8441 93.1428 65.4973 93.1428 62.6043V17.9967C93.1428 15.1066 90.7959 12.7598 87.9029 12.7598H12.0973C9.2041 12.7598 6.86035 15.1066 6.86035 17.9967V62.6043C6.86035 65.4973 9.2041 67.8441 12.0973 67.8441ZM14.8682 19.7973H85.1318V59.5738H14.8682V19.7973Z" fill="#2C756E"/>
<path d="M99.2248 82.3799L89.8803 74.0852C89.2791 73.5541 88.4154 73.252 87.5029 73.252H12.4969C11.5844 73.252 10.7207 73.5541 10.1195 74.0852L0.775195 82.3799C0.274609 82.8225 0 83.3932 0 83.9822V86.8723C0 87.5467 0.704883 88.0898 1.5748 88.0898H98.4254C99.2982 88.0898 100 87.5467 100 86.8723V83.9822C100 83.3932 99.7254 82.8225 99.2248 82.3799ZM39.2854 83.3596L41.9893 79.7035H59.1248L61.8256 83.3596H39.2854Z" fill="#2C756E"/>
</g>
<defs>
<clipPath id="clip0_2423_572">
<rect width="100" height="100" fill="white" transform="translate(0 0.423828)"/>
</clipPath>
</defs>
</svg>
