<?xml version="1.0" encoding="UTF-8"?>
<svg id="_レイヤー_2" data-name="レイヤー 2" xmlns="http://www.w3.org/2000/svg" viewBox="0 0 691.65 181.42">
  <defs>
    <style>
      .cls-1 {
        fill: #fff;
      }

      .cls-2 {
        fill: #4fd1c5;
      }
    </style>
  </defs>
  <g id="_レイヤー_1-2" data-name="レイヤー 1">
    <g>
      <g>
        <rect class="cls-2" x="0" y="0" width="181.42" height="181.42" rx="28.35" ry="28.35" transform="translate(0 181.42) rotate(-90)"/>
        <g>
          <rect class="cls-1" x="-34.89" y="97.69" width="125.6" height="13.96" rx="6.54" ry="6.54" transform="translate(132.57 76.75) rotate(90)"/>
          <rect class="cls-1" x="48.84" y="139.55" width="97.69" height="13.96" rx="6.54" ry="6.54" transform="translate(195.37 293.06) rotate(180)"/>
          <rect class="cls-1" x="90.71" y="69.78" width="125.6" height="13.96" rx="6.54" ry="6.54" transform="translate(76.75 230.26) rotate(-90)"/>
          <rect class="cls-1" x="27.91" y="102.43" width="104.66" height="13.96" rx="6.54" ry="6.54"/>
          <rect class="cls-1" x="34.89" y="27.91" width="97.69" height="13.96" rx="6.54" ry="6.54"/>
          <rect class="cls-1" x="48.84" y="65.03" width="104.66" height="13.96" rx="6.54" ry="6.54"/>
        </g>
      </g>
      <g>
        <path d="m215.84,61.01v-28.57c0-2.08,1.69-3.77,3.77-3.77h14.99c2.08,0,3.77,1.69,3.77,3.77v128.07c0,2.08-1.69,3.77-3.77,3.77h-14.99c-2.08,0-3.77-1.69-3.77-3.77V61.01Zm8.47,38.39l32.4-2.09c7.88-.55,14.08-2.99,18.61-7.3,4.52-4.31,6.79-9.87,6.79-16.69,0-7.23-2.26-12.97-6.79-17.21-4.53-4.24-10.73-6.36-18.61-6.36h-31.96l6.79-21.07h25.17c15.76,0,28.2,4,37.32,12,9.12,8,13.68,18.88,13.68,32.65,0,8.07-2.01,15.3-6.02,21.7-4.02,6.4-9.85,11.51-17.51,15.33-7.66,3.83-16.82,6.09-27.47,6.78l-32.4,2.09v-19.82Zm49.62,35.57c-3.27-7-6.21-12.91-8.84-17.72-1.19-2.18.02-4.89,2.43-5.47l12.15-2.96c1.62-.39,3.31.32,4.16,1.76,4.23,7.19,8.74,15.25,13.51,24.17,4.33,8.12,8.36,16.16,12.08,24.14,1.17,2.51-.66,5.39-3.43,5.39h-16.69c-1.53,0-2.9-.93-3.49-2.33-3.94-9.44-7.9-18.43-11.88-26.98Z"/>
        <path d="m344.61,158.21c-7.17-4.05-12.69-9.92-16.54-17.63-3.85-7.7-5.78-16.86-5.78-27.48s1.96-19.18,5.88-26.89c3.92-7.7,9.3-13.67,16.14-17.92,6.84-4.25,14.58-6.37,23.22-6.37s16.74,2.03,23.12,6.07c6.38,4.05,11.23,9.69,14.55,16.93,3.32,7.24,4.98,15.5,4.98,24.79,0,2.47-.13,4.91-.38,7.32-.19,1.84-1.82,3.23-3.76,3.23h-29.44s-27.64,0-27.64,0c-2.46,0-4.25,2.22-3.65,4.49,1.43,5.48,3.99,9.95,7.68,13.43,4.65,4.38,11.09,6.57,19.33,6.57,5.18,0,10.53-.56,16.04-1.69,3.9-.8,7.55-1.81,10.95-3.04,2.17-.79,4.56.49,5.02,2.67.9,4.28,1.58,7.81,2.05,10.57.27,1.6-.62,3.16-2.15,3.84-4.48,1.98-9.34,3.6-14.57,4.88-6.25,1.52-12.75,2.29-19.53,2.29-9.83,0-18.33-2.03-25.51-6.07Zm45.44-54.27c-.27-5.04-1.33-9.29-3.19-12.75-1.86-3.45-4.38-6.04-7.57-7.77-3.19-1.72-7.11-2.59-11.76-2.59-3.85,0-7.41.93-10.66,2.79-3.26,1.86-6.01,4.58-8.27,8.17-2.26,3.59-3.66,7.64-4.19,12.15h45.64Z"/>
        <path d="m435.12,83.55c-2.45-2.36-3.67-5.63-3.67-9.81s1.22-7.27,3.67-9.7c2.45-2.43,5.86-3.65,10.25-3.65,4.14,0,7.46,1.22,9.97,3.65,2.51,2.43,3.76,5.67,3.76,9.7s-1.22,7.44-3.67,9.81c-2.45,2.37-5.8,3.55-10.06,3.55s-7.81-1.18-10.25-3.55Zm0,65.38c-2.45-2.45-3.67-5.83-3.67-10.15s1.22-7.52,3.67-10.05c2.45-2.52,5.86-3.78,10.25-3.78,4.14,0,7.46,1.26,9.97,3.78,2.51,2.52,3.76,5.87,3.76,10.05s-1.22,7.71-3.67,10.15c-2.45,2.45-5.8,3.67-10.06,3.67s-7.81-1.23-10.25-3.67Z"/>
        <path d="m485.3,53.92v-21.48c0-2.08,1.69-3.76,3.76-3.76h14.99c2.08,0,3.76,1.69,3.76,3.76v128.08c0,2.08-1.69,3.76-3.76,3.76h-14.99c-2.08,0-3.76-1.69-3.76-3.76V53.92Zm4.77-25.24h9.59c2.09,0,3.78,1.69,3.78,3.78v11.41c0,1.74-1.19,3.26-2.88,3.67l-9.59,2.33c-2.38.58-4.67-1.22-4.67-3.67v-13.74c0-2.09,1.69-3.78,3.78-3.78Zm7.96,15.83l1.09-12.36c.17-1.96,1.96-3.47,4.1-3.47h58.04c2.17,0,3.96,1.54,4.1,3.52l.97,13.45c.16,2.2-1.78,4.06-4.19,4.02l-60.1-1.09c-2.37-.04-4.21-1.91-4.02-4.07Zm4.64,62.69v-10.82c0-2.03,1.69-3.7,3.81-3.77l45.69-1.42c2.23-.07,4.07,1.64,4.07,3.77v13.31c0,2.12-1.82,3.82-4.04,3.77l-45.69-1.07c-2.14-.05-3.85-1.72-3.85-3.77Z"/>
        <path d="m577.62,79.58c.1-1.97,1.89-3.55,4.17-3.64,3.93-.15,8.71-.22,14.35-.22,4.72,0,8.88.05,12.5.16,3.03.09,5.02,2.77,3.87,5.2l-4.77,10.12c-.54,1.15-1.71,2-3.11,2.26l-21.78,4.07c-2.65.49-5.18-1.21-5.28-3.56-.21-4.82-.19-9.62.05-14.39Zm11.8-13.69c-2.51-2.47-3.76-5.84-3.76-10.12s1.25-7.65,3.76-10.12c2.51-2.47,5.86-3.71,10.06-3.71s7.7,1.24,10.15,3.71c2.45,2.47,3.68,5.85,3.68,10.12s-1.23,7.65-3.68,10.12c-2.45,2.47-5.84,3.71-10.15,3.71s-7.56-1.23-10.06-3.71Zm1.69,81.25v-64.63c0-1.85,1.34-3.42,3.17-3.71l14.2-2.27c2.28-.36,4.35,1.4,4.35,3.71v80.28c0,2.08-1.68,3.76-3.76,3.76h-14.2c-2.08,0-3.76-1.68-3.76-3.76v-13.38Z"/>
        <path d="m632.19,75.52h55.22c1.62,0,2.94,1.6,3.02,3.62.19,4.76.19,9.53,0,14.29-.08,2.09-1.49,3.71-3.15,3.62l-33.92-1.91c-.11,0-.23,0-.34,0l-20.62,1.79c-1.74.15-3.22-1.58-3.22-3.77v-13.87c0-2.09,1.35-3.78,3.02-3.78Zm58.38,87.69c-.17.64-2.05,2.34-11.18,1.08-10.18-1.41-17.65-2.2-23.62-8.4-5.38-5.6-8.07-14.82-8.07-27.67v-49.13c0-.56.22-1.11.61-1.54l.14-.15c.42-.45.63-1.03.61-1.63l-1.26-31.33c-.05-1.36,1.13-2.49,2.62-2.49h18.48c1.56,0,2.77,1.23,2.61,2.65l-3.54,30.7c-.09.75.22,1.49.82,2.01.53.45.84,1.09.84,1.75v47.43c0,7,1.2,11.83,3.59,14.5,2.39,2.67,5.78,4.01,10.16,4.01,3.35,0,6.26-1.48,7.2-.25.38.85.37,1.01.48,1.64.82,6.95.89,11.65-.5,16.81Z"/>
      </g>
    </g>
  </g>
</svg>
